<svg width="18" height="18" viewBox="0 0 18 18" fill="none" xmlns="http://www.w3.org/2000/svg">
<path d="M5.83331 14C4.91665 14 4.17498 14.75 4.17498 15.6667C4.17498 16.5833 4.91665 17.3333 5.83331 17.3333C6.74998 17.3333 7.49998 16.5833 7.49998 15.6667C7.49998 14.75 6.74998 14 5.83331 14ZM0.833313 0.666656V2.33332H2.49998L5.49998 8.65832L4.37498 10.7C4.24165 10.9333 4.16665 11.2083 4.16665 11.5C4.16665 12.4167 4.91665 13.1667 5.83331 13.1667H15.8333V11.5H6.18331C6.06665 11.5 5.97498 11.4083 5.97498 11.2917L5.99998 11.1917L6.74998 9.83332H12.9583C13.5833 9.83332 14.1333 9.49166 14.4166 8.97499L17.4 3.56666C17.4666 3.44999 17.5 3.30832 17.5 3.16666C17.5 2.70832 17.125 2.33332 16.6666 2.33332H4.34165L3.55831 0.666656H0.833313ZM14.1666 14C13.25 14 12.5083 14.75 12.5083 15.6667C12.5083 16.5833 13.25 17.3333 14.1666 17.3333C15.0833 17.3333 15.8333 16.5833 15.8333 15.6667C15.8333 14.75 15.0833 14 14.1666 14Z" fill="#909090"/>
</svg>
